<svg shape-rendering="crispEdges" width="638" height="87" viewBox="0 0 638 87" fill="none"
    xmlns="http://www.w3.org/2000/svg">
    <path
        d="M5.3125 7.125H15.9375V12.4375H21.25V17.75H26.5625V7.125H37.1875V39H26.5625V33.6875H21.25V28.375H15.9375V39H5.3125V7.125ZM53.125 12.4375H74.375V17.75H79.6875V23.0625H74.375V28.375H58.4375V33.6875H79.6875V39H53.125V33.6875H47.8125V17.75H53.125V12.4375ZM58.4375 17.75V23.0625H69.0625V17.75H58.4375ZM90.3125 12.4375H100.938V17.75H111.562V12.4375H122.188V23.0625H116.875V28.375H122.188V39H111.562V33.6875H100.938V39H90.3125V28.375H95.625V23.0625H90.3125V12.4375ZM132.812 12.4375H143.438V33.6875H154.062V12.4375H164.688V33.6875H170V39H159.375V33.6875H154.062V39H138.125V33.6875H132.812V12.4375ZM180.625 12.4375H201.875V17.75H185.938V23.0625H201.875V28.375H207.188V33.6875H201.875V39H175.312V33.6875H196.562V28.375H180.625V23.0625H175.312V17.75H180.625V12.4375ZM260.312 7.125H286.875V12.4375H292.188V23.0625H286.875V28.375H292.188V39H281.562V28.375H270.938V39H260.312V7.125ZM270.938 12.4375V23.0625H281.562V12.4375H270.938ZM302.812 7.125H329.375V12.4375H334.688V23.0625H329.375V28.375H313.438V39H302.812V7.125ZM313.438 12.4375V23.0625H324.062V12.4375H313.438ZM350.625 7.125H371.875V12.4375H377.188V17.75H366.562V12.4375H355.938V33.6875H366.562V28.375H377.188V33.6875H371.875V39H350.625V33.6875H345.312V12.4375H350.625V7.125ZM430.312 7.125H456.875V12.4375H462.188V23.0625H456.875V28.375H440.938V39H430.312V7.125ZM440.938 12.4375V23.0625H451.562V12.4375H440.938ZM472.812 12.4375H483.438V17.75H488.75V12.4375H499.375V17.75H504.688V23.0625H494.062V17.75H488.75V23.0625H483.438V39H472.812V12.4375ZM520.625 12.4375H541.875V17.75H547.188V33.6875H541.875V39H520.625V33.6875H515.312V17.75H520.625V12.4375ZM525.938 17.75V33.6875H536.562V17.75H525.938ZM557.812 12.4375H568.438V17.75H579.062V12.4375H589.688V23.0625H584.375V28.375H589.688V39H579.062V33.6875H568.438V39H557.812V28.375H563.125V23.0625H557.812V12.4375ZM600.312 12.4375H610.938V28.375H621.562V12.4375H632.188V39H626.875V44.3125H605.625V39H621.562V33.6875H605.625V28.375H600.312V12.4375Z"
        fill="black" />
    <path
        d="M2.9375 54.4375H8.8125V60.3125H17.625V63.25H20.5625V72.0625H17.625V75H2.9375V54.4375ZM8.8125 63.25V72.0625H14.6875V63.25H8.8125ZM26.4375 60.3125H32.3125V69.125H38.1875V60.3125H44.0625V75H41.125V77.9375H29.375V75H38.1875V72.0625H29.375V69.125H26.4375V60.3125ZM73.4375 57.375H79.3125V66.1875H82.25V63.25H85.1875V66.1875H88.125V57.375H94V75H88.125V72.0625H85.1875V69.125H82.25V72.0625H79.3125V75H73.4375V57.375ZM96.9375 54.4375H102.812V60.3125H111.625V63.25H114.562V75H108.688V63.25H102.812V75H96.9375V54.4375ZM123.375 60.3125H138.062V72.0625H141V75H135.125V72.0625H132.188V75H123.375V72.0625H120.438V63.25H123.375V60.3125ZM126.312 63.25V72.0625H132.188V63.25H126.312ZM146.875 57.375H152.75V60.3125H158.625V63.25H152.75V72.0625H155.688V69.125H161.562V72.0625H158.625V75H149.812V72.0625H146.875V63.25H143.938V60.3125H146.875V57.375ZM170.375 60.3125H182.125V63.25H173.312V66.1875H182.125V69.125H185.062V72.0625H182.125V75H167.438V72.0625H179.188V69.125H170.375V66.1875H167.438V63.25H170.375V60.3125ZM193.875 57.375H205.625V60.3125H208.562V63.25H202.688V60.3125H196.812V72.0625H202.688V69.125H199.75V66.1875H208.562V72.0625H205.625V75H193.875V72.0625H190.938V60.3125H193.875V57.375ZM217.375 60.3125H229.125V63.25H232.062V72.0625H229.125V75H217.375V72.0625H214.438V63.25H217.375V60.3125ZM220.312 63.25V72.0625H226.188V63.25H220.312ZM240.875 60.3125H252.625V63.25H255.562V72.0625H252.625V75H240.875V72.0625H237.938V63.25H240.875V60.3125ZM243.812 63.25V72.0625H249.688V63.25H243.812ZM273.188 54.4375H279.062V75H264.375V72.0625H261.438V63.25H264.375V60.3125H273.188V54.4375ZM267.312 63.25V72.0625H273.188V63.25H267.312ZM290.812 69.125H296.688V75H290.812V69.125ZM308.438 57.375H323.125V60.3125H326.062V72.0625H323.125V75H308.438V57.375ZM314.312 60.3125V72.0625H320.188V60.3125H314.312ZM334.875 60.3125H346.625V63.25H349.562V72.0625H346.625V75H334.875V72.0625H331.938V63.25H334.875V60.3125ZM337.812 63.25V72.0625H343.688V63.25H337.812ZM358.375 60.3125H373.062V75H370.125V77.9375H358.375V75H367.188V72.0625H358.375V69.125H355.438V63.25H358.375V60.3125ZM361.312 63.25V69.125H367.188V63.25H361.312ZM405.375 57.375H417.125V60.3125H420.062V63.25H414.188V60.3125H408.312V72.0625H414.188V69.125H420.062V72.0625H417.125V75H405.375V72.0625H402.438V60.3125H405.375V57.375ZM428.875 60.3125H440.625V63.25H443.562V72.0625H440.625V75H428.875V72.0625H425.938V63.25H428.875V60.3125ZM431.812 63.25V72.0625H437.688V63.25H431.812ZM452.375 54.4375H458.25V72.0625H464.125V75H455.312V72.0625H452.375V54.4375ZM475.875 54.4375H481.75V72.0625H487.625V75H478.812V72.0625H475.875V54.4375ZM499.375 60.3125H511.125V63.25H514.062V66.1875H511.125V69.125H502.312V72.0625H514.062V75H499.375V72.0625H496.438V63.25H499.375V60.3125ZM502.312 63.25V66.1875H508.188V63.25H502.312ZM522.875 60.3125H534.625V63.25H537.562V66.1875H531.688V63.25H525.812V72.0625H531.688V69.125H537.562V72.0625H534.625V75H522.875V72.0625H519.938V63.25H522.875V60.3125ZM546.375 57.375H552.25V60.3125H558.125V63.25H552.25V72.0625H555.188V69.125H561.062V72.0625H558.125V75H549.312V72.0625H546.375V63.25H543.438V60.3125H546.375V57.375ZM572.812 54.4375H578.688V57.375H572.812V54.4375ZM572.812 60.3125H578.688V75H572.812V60.3125ZM590.438 60.3125H596.312V69.125H602.188V60.3125H608.062V69.125H605.125V72.0625H602.188V75H596.312V72.0625H593.375V69.125H590.438V60.3125ZM616.875 60.3125H628.625V63.25H631.562V66.1875H628.625V69.125H619.812V72.0625H631.562V75H616.875V72.0625H613.938V63.25H616.875V60.3125ZM619.812 63.25V66.1875H625.688V63.25H619.812Z"
        fill="black" />
</svg>